# xmcd CD database file
#
# Track frame offsets:
#	150
#	21378
#	39974
#	59787
#	77881
#	95866
#	116936
#	135978
#	154342
#	180647
#	199190
#	225598
#	243763
#
# Disc length: 3473 seconds
#
# Revision: 0
# Processed by: cddbd v1.5.2PL0 Copyright (c) Steve Scherf et al.
# Submitted via: CDex 1.51
#
DISCID=b30d8f0d
DTITLE=Michael Rabb - Like a Dream
DYEAR=2004
DGENRE=New Age
TTITLE0=Dream Come True
TTITLE1=Walking on Air
TTITLE2=Through the Eyes of a Child
TTITLE3=Like a Dream
TTITLE4=Best of Times
TTITLE5=When Towers Fall
TTITLE6=The Color Brown
TTITLE7=Through the Years
TTITLE8=In the Midst of Pain
TTITLE9=Once Upon a Rainy Day
TTITLE10=Unnamed Melody
TTITLE11=From the Heart
TTITLE12=Sweet Dreams
EXTD=YEAR: 2004
EXTT0=
EXTT1=
EXTT2=
EXTT3=
EXTT4=
EXTT5=
EXTT6=
EXTT7=
EXTT8=
EXTT9=
EXTT10=
EXTT11=
EXTT12=
PLAYORDER=
